<?xml version="1.0" encoding="UTF-8" standalone="no"?>
<svg width="85px" height="43px" viewBox="0 0 85 43" version="1.1" xmlns="http://www.w3.org/2000/svg" xmlns:xlink="http://www.w3.org/1999/xlink">
    <!-- Generator: Sketch 42 (36781) - http://www.bohemiancoding.com/sketch -->
    <title>logo</title>
    <desc>Created with Sketch.</desc>
    <defs></defs>
    <g id="Symbols" stroke="none" stroke-width="1" fill="none" fill-rule="evenodd">
        <g id="Purple-nav" fill="#5DCD11">
            <g id="logo">
                <g>
                    <path d="M80.1029046,20.3100775 C82.8069998,20.3100775 84.9983601,22.4985731 84.9983601,25.1984805 C84.9983601,27.8983878 82.8069998,30.0868835 80.1029046,30.0868835 C77.3990308,30.0868835 75.2078919,27.8983878 75.2078919,25.1984805 C75.2078919,22.4985731 77.3990308,20.3100775 80.1029046,20.3100775" id="Fill-1"></path>
                    <path d="M36.2570369,42.664411 L36.2499494,42.664411 C33.8021109,42.664411 31.8178379,40.6734154 31.8187238,38.218328 L31.8253683,16.0492295 C31.8262543,13.5863666 33.8231519,11.5938158 36.2782993,11.6058125 L36.2782993,11.6058125 C38.7172785,11.6175869 40.688041,13.6041394 40.688041,16.0503403 L40.688484,38.2194388 C40.688484,40.674304 38.7044325,42.664411 36.2570369,42.664411" id="Fill-3"></path>
                    <path d="M17.8427318,24.8147767 L23.4416198,19.2878866 C25.2526925,17.5001672 25.2130469,14.5587722 23.3545767,12.8205944 L23.3545767,12.8205944 C21.6088417,11.1877203 18.8912359,11.2210442 17.185811,12.896573 L8.88703592,21.0489469 L8.85270594,4.54669908 C8.8478333,2.14470794 6.98648377,0.0999496682 4.59335173,0.0110857712 C2.07618878,-0.0824434805 0.000221483761,1.93721074 0.000221483761,4.44761583 L0,38.2358911 C0,40.6763159 1.97231289,42.6546484 4.40531201,42.6546484 L4.40531201,42.6546484 C6.83808965,42.6546484 8.81040254,40.676538 8.81062403,38.2361132 L8.81084551,32.7194425 L11.0438448,30.6413603 L18.5917899,40.8324942 C20.0429515,42.7919431 22.7959947,43.2151574 24.7654283,41.7815606 L24.7654283,41.7815606 C26.7623258,40.3279694 27.1953266,37.5207589 25.72999,35.5299854 L17.8427318,24.8147767 Z" id="Fill-5"></path>
                    <path d="M64.1910452,24.8147767 L69.7899332,19.2878866 C71.6010059,17.5001672 71.5613603,14.5587722 69.7028901,12.8205944 L69.7028901,12.8205944 C67.9571551,11.1877203 65.2395493,11.2210442 63.5341244,12.896573 L55.2353493,21.0489469 L55.2010193,4.54669908 C55.1961467,2.14470794 53.3347972,0.0999496682 50.9416651,0.0110857712 C48.4245022,-0.0824434805 46.3485349,1.93721074 46.3485349,4.44761583 L46.3483134,38.2358911 C46.3483134,40.6763159 48.3206263,42.6546484 50.7536254,42.6546484 L50.7536254,42.6546484 C53.1866245,42.6546484 55.1587159,40.676538 55.1589374,38.2361132 L55.1591589,32.7194425 L57.3921582,30.6413603 L64.9401033,40.8324942 C66.3912649,42.7919431 69.144308,43.2151574 71.1137416,41.7815606 L71.1137416,41.7815606 C73.1106392,40.3279694 73.54364,37.5207589 72.0783034,35.5299854 L64.1910452,24.8147767 Z" id="Fill-8"></path>
                </g>
            </g>
        </g>
    </g>
</svg>